<?xml version="1.0" standalone="no"?><!DOCTYPE svg PUBLIC "-//W3C//DTD SVG 1.1//EN" "http://www.w3.org/Graphics/SVG/1.1/DTD/svg11.dtd"><svg t="1683707151353" class="icon" viewBox="0 0 1024 1024" version="1.1" xmlns="http://www.w3.org/2000/svg" p-id="1168" xmlns:xlink="http://www.w3.org/1999/xlink" width="32" height="32"><path d="M256 0h512a256 256 0 0 1 256 256v512a256 256 0 0 1-256 256H51.2a51.2 51.2 0 0 1-51.2-51.2V256A256 256 0 0 1 256 0z" fill="#F5AD30" p-id="1169"></path><path d="M260.585166 217.036763m29.416107-24.683044l1.539443-1.291746q29.416107-24.683044 54.099151 4.733062l194.469477 231.759699q24.683044 29.416107-4.733062 54.099151l-1.539443 1.291746q-29.416107 24.683044-54.099151-4.733063l-194.469478-231.759698q-24.683044-29.416107 4.733063-54.099151Z" fill="#FFFFFF" p-id="1170"></path><path d="M518.880128 508.568214m-29.416107-24.683044l-1.539443-1.291746q-29.416107-24.683044-4.733062-54.099151l194.469477-231.759699q24.683044-29.416107 54.099151-4.733062l1.539443 1.291746q29.416107 24.683044 4.733062 54.099151l-194.469477 231.759698q-24.683044 29.416107-54.099151 4.733063Z" fill="#FFFFFF" p-id="1171"></path><path d="M465.2288 388.9536m38.4 0l2.0096 0q38.4 0 38.4 38.4l0 390.9248q0 38.4-38.4 38.4l-2.0096 0q-38.4 0-38.4-38.4l0-390.9248q0-38.4 38.4-38.4Z" fill="#FFFFFF" p-id="1172"></path><path d="M261.312 684.7488m0-38.4l0-2.0096q0-38.4 38.4-38.4l424.6016 0q38.4 0 38.4 38.4l0 2.0096q0 38.4-38.4 38.4l-424.6016 0q-38.4 0-38.4-38.4Z" fill="#FFFFFF" p-id="1173"></path><path d="M261.2992 528.832m0-38.4l0-2.0096q0-38.4 38.4-38.4l424.6016 0q38.4 0 38.4 38.4l0 2.0096q0 38.4-38.4 38.4l-424.6016 0q-38.4 0-38.4-38.4Z" fill="#FFFFFF" p-id="1174"></path></svg>