<svg id="visual" viewBox="0 0 960 540" width="960" height="540" xmlns="http://www.w3.org/2000/svg" xmlns:xlink="http://www.w3.org/1999/xlink" version="1.1"><rect x="0" y="0" width="960" height="540" fill="#FFFFFF"></rect><path d="M0 396L22.8 400C45.7 404 91.3 412 137 411.5C182.7 411 228.3 402 274 396.7C319.7 391.3 365.3 389.7 411.2 392.2C457 394.7 503 401.3 548.8 391.2C594.7 381 640.3 354 686 358C731.7 362 777.3 397 823 397.8C868.7 398.7 914.3 365.3 937.2 348.7L960 332L960 541L937.2 541C914.3 541 868.7 541 823 541C777.3 541 731.7 541 686 541C640.3 541 594.7 541 548.8 541C503 541 457 541 411.2 541C365.3 541 319.7 541 274 541C228.3 541 182.7 541 137 541C91.3 541 45.7 541 22.8 541L0 541Z" fill="#001122" stroke-linecap="round" stroke-linejoin="miter"></path></svg>